<?xml version="1.0" encoding="UTF-8"?>
<svg width="24px" height="24px" viewBox="0 0 24 24" version="1.1" xmlns="http://www.w3.org/2000/svg">
    <path fill="#F5C518" d="M14.31 9.588v5.043h-.733V9.588h.733zm-2.969 0v5.043h-.733V9.588h.733zm9.174 4.553v.49h-.967v-.49h.967zm1.856-4.553v5.043h-.715v-3.702l-.734 3.702h-.752l-.733-3.702v3.702h-.715V9.588h1.237l.715 3.025.724-3.025h1.237zm-3.827 3.662v1.381h-.967v-1.38h.967zm0-3.662v2.729h-.967V9.588h.967zm-2.817 0l1.381 5.043h-.778l-.243-1.016h-1.172l-.242 1.016h-.778l1.381-5.043h.451zm-.384 3.354l-.447-1.85-.446 1.85h.893zm-2.258-3.354v5.043h-.733V9.588h.733zm-2.969 0v5.043h-.733V9.588h.733z"/>
</svg>
